<svg width="120" height="120" viewBox="0 0 120 120" fill="none" xmlns="http://www.w3.org/2000/svg">
    <rect width="120" height="120" fill="#222" fill-opacity="0.1" />
    <g opacity="0.15">
        <circle cx="30" cy="30" r="18" fill="#4B5320" />
        <circle cx="90" cy="40" r="12" fill="#6B7A2A" />
        <ellipse cx="60" cy="90" rx="20" ry="10" fill="#3A3A3A" />
        <rect x="10" y="80" width="18" height="8" rx="4" fill="#7A7A7A" />
        <rect x="80" y="70" width="24" height="6" rx="3" fill="#4B5320" />
        <ellipse cx="100" cy="110" rx="8" ry="4" fill="#6B7A2A" />
    </g>
    <!-- Siluetas tipo zombie -->
    <g opacity="0.12">
        <path d="M40 60 Q42 55 45 60 Q48 65 45 70 Q42 75 40 70 Q38 65 40 60 Z" fill="#4B5320" />
        <path d="M80 100 Q82 95 85 100 Q88 105 85 110 Q82 115 80 110 Q78 105 80 100 Z"
            fill="#6B7A2A" />
    </g>
</svg>